<svg width="50.000000" height="49.000000" viewBox="0 0 50 49" fill="none" xmlns="http://www.w3.org/2000/svg" xmlns:xlink="http://www.w3.org/1999/xlink">
	<desc>
			Created with Pixso.
	</desc>
	<defs>
		<linearGradient id="paint_linear_177_1811_0" x1="56.410259" y1="-0.984383" x2="0.000175" y2="48.682461" gradientUnits="userSpaceOnUse">
			<stop offset="0.250000" stop-color="#3B768F"/>
			<stop offset="0.536458" stop-color="#3EC6FF"/>
			<stop offset="0.817708" stop-color="#3B768F"/>
		</linearGradient>
	</defs>
	<path id="Vector" d="M49.99 26.94C49.78 23.38 47.39 22.25 45.64 21.42C44.73 20.99 43.94 20.62 43.66 20.04C43.62 19.48 43.62 19.02 43.62 18.51L43.62 18.43C44.12 17.85 44.55 16.9 44.75 16.04C45.19 15.73 45.65 15.13 45.8 13.92C45.87 13.31 45.73 12.82 45.5 12.44C45.84 11.19 46.39 8.46 45.24 6.62C44.74 5.81 43.97 5.27 43 5.04C42.38 4.36 41.31 4 39.93 4L39.92 4C37.78 4.03 36.2 4.71 35.22 5.99C34.11 7.46 33.87 9.61 34.51 12.41C34.27 12.79 34.12 13.3 34.19 13.93C34.34 15.14 34.81 15.74 35.25 16.04C35.46 16.89 35.89 17.85 36.4 18.43L36.4 18.51C36.4 19.02 36.41 19.48 36.36 20.03C36.23 20.28 35.94 20.51 35.55 20.72C34.61 18.17 32.42 17.17 30.77 16.41C29.79 15.96 28.94 15.56 28.66 15.03C28.62 14.48 28.62 14.03 28.62 13.51L28.63 13.43C29.12 12.85 29.55 11.9 29.75 11.04C30.19 10.74 30.65 10.13 30.8 8.92C30.87 8.32 30.73 7.82 30.5 7.44C30.84 6.19 31.39 3.46 30.25 1.62C29.74 0.82 28.97 0.27 28 0.04C27.51 -0.49 26.61 -0.99 24.93 -0.99C22.78 -0.95 21.19 -0.28 20.22 1.01C19.11 2.47 18.88 4.62 19.51 7.41C19.28 7.79 19.12 8.3 19.2 8.93C19.34 10.14 19.81 10.74 20.25 11.04C20.46 11.89 20.89 12.85 21.4 13.43L21.4 13.51C21.4 14.03 21.41 14.48 21.36 15.03C21.08 15.56 20.23 15.96 19.25 16.41C17.58 17.17 15.39 18.17 14.45 20.72C14.05 20.51 13.76 20.28 13.63 20.03C13.59 19.47 13.59 19.02 13.6 18.5L13.6 18.43C14.1 17.85 14.54 16.89 14.74 16.04C15.18 15.74 15.65 15.14 15.8 13.92C15.87 13.3 15.72 12.78 15.48 12.41C16.12 9.61 15.88 7.45 14.77 5.99C13.79 4.71 12.21 4.03 10.05 4C8.67 4 7.61 4.36 6.99 5.04C6.02 5.27 5.25 5.82 4.75 6.62C3.6 8.46 4.15 11.19 4.49 12.44C4.26 12.82 4.12 13.32 4.19 13.93C4.34 15.14 4.8 15.74 5.25 16.04C5.44 16.9 5.87 17.85 6.37 18.43L6.37 18.51C6.37 19.03 6.37 19.48 6.33 20.04C6.05 20.62 5.25 20.99 4.35 21.42C2.6 22.25 0.21 23.38 0 27L0 38C0 38.06 0 38.13 0.01 38.19C0.07 38.49 1.54 45.01 11.52 48.28C11.52 48.28 11.68 48.43 12.98 48.58C12.97 48.14 12.97 47.41 13.01 46.68C13.39 43.03 16.33 41.83 18.49 40.96C19.67 40.48 20.78 40.03 21.12 39.38C21.17 38.76 21.16 38.26 21.16 37.69L21.16 37.58C20.6 36.95 20.12 35.89 19.9 34.96C19.43 34.65 18.92 34.01 18.76 32.7C18.68 32.02 18.85 31.48 19.11 31.08C18.41 28.05 18.66 25.71 19.86 24.13C20.91 22.76 22.6 22.03 24.91 22C26.41 22 27.55 22.39 28.2 23.12C29.25 23.37 30.08 23.94 30.62 24.81C31.85 26.8 31.25 29.78 30.87 31.11C31.12 31.51 31.28 32.04 31.21 32.7C31.05 34.01 30.54 34.65 30.07 34.96C29.85 35.89 29.39 36.95 28.84 37.57L28.84 37.69C28.83 38.26 28.83 38.76 28.88 39.38C29.21 40.03 30.32 40.48 31.5 40.96C33.66 41.84 36.61 43.04 36.96 46.68C37.01 47.21 37 48.22 36.99 48.66C37.93 48.55 37.99 48.46 37.99 48.46C48.42 45.24 49.91 38.5 49.98 38.19C49.99 38.13 50 38.06 50 38L49.99 26.94Z" fill="url(#paint_linear_177_1811_0)" fill-opacity="1.000000" fill-rule="nonzero"/>
</svg>
