<svg width="31.000000" height="21.000000" viewBox="0 0 31 21" fill="none" xmlns="http://www.w3.org/2000/svg" xmlns:xlink="http://www.w3.org/1999/xlink">
	<desc>
			Created with Pixso.
	</desc>
	<defs>
		<linearGradient id="paint_linear_177_1846_0" x1="35.061863" y1="-0.060055" x2="-0.679586" y2="20.409124" gradientUnits="userSpaceOnUse">
			<stop offset="0.250000" stop-color="#3B768F"/>
			<stop offset="0.536458" stop-color="#3EC6FF"/>
			<stop offset="0.817708" stop-color="#3B768F"/>
		</linearGradient>
	</defs>
	<path id="Vector" d="M9.55 -0.07C3.9 -0.07 -0.68 4.52 -0.68 10.16C-0.68 15.81 3.9 20.39 9.55 20.39C15.19 20.39 19.78 15.81 19.78 10.16C19.78 4.52 15.19 -0.07 9.55 -0.07ZM15.16 5.87C15.32 5.87 15.49 5.94 15.62 6.07C15.88 6.33 15.88 6.74 15.62 7L7.7 14.92C7.57 15.05 7.4 15.12 7.24 15.12C7.07 15.12 6.9 15.05 6.77 14.92L3.47 11.62C3.21 11.36 3.21 10.95 3.47 10.69C3.73 10.43 4.14 10.43 4.4 10.69L7.24 13.52L14.69 6.07C14.82 5.94 14.99 5.87 15.16 5.87ZM23.08 9.83C22.9 9.83 22.73 9.9 22.61 10.03C22.49 10.15 22.41 10.32 22.41 10.5C22.41 10.67 22.49 10.84 22.61 10.96C22.73 11.09 22.9 11.15 23.08 11.15L31 11.15L31 9.83L23.08 9.83Z" fill="url(#paint_linear_177_1846_0)" fill-opacity="1.000000" fill-rule="nonzero"/>
</svg>
