<svg width="40.000000" height="38.000000" viewBox="0 0 40 38" fill="none" xmlns="http://www.w3.org/2000/svg" xmlns:xlink="http://www.w3.org/1999/xlink">
	<desc>
			Created with Pixso.
	</desc>
	<defs/>
	<path id="Vector" d="M20 -0.2C13.14 -0.2 7.39 4.62 5.95 11.05C6.09 11.03 6.25 11 6.4 11C6.8 11 7.2 11.08 7.57 11.2C8.93 5.59 13.97 1.4 20 1.4C26.01 1.4 31.06 5.59 32.42 11.2C32.79 11.08 33.18 11 33.59 11C33.75 11 33.9 11.03 34.04 11.05C32.6 4.62 26.85 -0.2 20 -0.2ZM6.4 12.6C5.07 12.6 4 13.67 4 15L4 27C4 28.32 5.07 29.4 6.4 29.4C7.72 29.4 8.79 28.32 8.79 27L8.79 15C8.79 13.67 7.72 12.6 6.4 12.6ZM33.59 12.6C32.27 12.6 31.2 13.67 31.2 15L31.2 27C31.2 28.32 32.27 29.4 33.59 29.4C34.92 29.4 36 28.32 36 27L36 15C36 13.67 34.92 12.6 33.59 12.6ZM2.4 15.1C0.95 16.25 0 18.43 0 21C0 23.56 0.95 25.74 2.4 26.9L2.4 15.1ZM37.59 15.1L37.59 26.9C39.04 25.74 40 23.56 40 21C40 18.43 39.04 16.25 37.59 15.1ZM32.47 30.82C31.76 32.99 29.93 34.2 27.2 34.2L26.32 34.2C26.37 34.45 26.4 34.72 26.4 35C26.4 35.27 26.37 35.54 26.32 35.8L27.2 35.8C30.79 35.8 33.28 33.99 34.09 30.95C33.93 30.97 33.77 31 33.59 31C33.2 31 32.83 30.93 32.47 30.82ZM18.4 32.59C17.07 32.59 16 33.67 16 35C16 36.32 17.07 37.4 18.4 37.4L22.4 37.4C23.72 37.4 24.79 36.32 24.79 35C24.79 33.67 23.72 32.59 22.4 32.59L18.4 32.59Z" fill="#FFFFFF" fill-opacity="1.000000" fill-rule="nonzero"/>
</svg>
