<svg width="22.000000" height="22.000000" viewBox="0 0 22 22" fill="none" xmlns="http://www.w3.org/2000/svg" xmlns:xlink="http://www.w3.org/1999/xlink">
	<desc>
			Created with Pixso.
	</desc>
	<defs>
		<linearGradient id="paint_linear_177_1727_0" x1="10.504428" y1="-0.510956" x2="10.504428" y2="21.500599" gradientUnits="userSpaceOnUse">
			<stop stop-color="#4ABCEC"/>
			<stop offset="1.000000" stop-color="#4A8BEC"/>
		</linearGradient>
	</defs>
	<path id="Vector" d="M3.92 -0.51C3.53 -0.54 3.1 -0.43 2.71 -0.15C2.36 0.09 1.61 0.68 0.91 1.36C0.56 1.69 0.23 2.04 -0.03 2.39C-0.29 2.73 -0.52 3.05 -0.5 3.5C-0.49 3.91 -0.45 5.13 0.42 6.99C1.3 8.84 2.99 11.39 6.29 14.7C9.6 18 12.15 19.69 14 20.57C15.86 21.44 17.08 21.48 17.49 21.5C17.94 21.51 18.26 21.28 18.6 21.02C18.94 20.76 19.29 20.43 19.63 20.08C20.3 19.38 20.9 18.63 21.14 18.28C21.69 17.5 21.6 16.57 20.98 16.13C20.6 15.86 17.04 13.5 16.51 13.17C15.96 12.83 15.34 12.99 14.78 13.28C14.34 13.51 13.15 14.19 12.81 14.39C12.55 14.23 11.58 13.58 9.5 11.49C7.41 9.41 6.76 8.43 6.6 8.18C6.79 7.84 7.47 6.66 7.71 6.21C8 5.65 8.17 5.02 7.82 4.47C7.67 4.24 7 3.23 6.33 2.21C5.66 1.19 5.02 0.23 4.85 0L4.85 0C4.64 -0.3 4.3 -0.48 3.92 -0.51ZM3.82 0.51C3.96 0.53 4.04 0.58 4.04 0.58C4.12 0.69 4.82 1.75 5.5 2.76C6.17 3.78 6.85 4.82 6.97 5.01C6.99 5.04 7.02 5.37 6.82 5.74L6.82 5.74C6.6 6.16 5.57 7.96 5.57 7.96L5.43 8.21L5.58 8.46C5.58 8.46 6.35 9.76 8.79 12.2C11.23 14.64 12.53 15.41 12.53 15.41L12.78 15.56L13.03 15.41C13.03 15.41 14.82 14.39 15.25 14.16C15.62 13.97 15.95 14 15.99 14.02C16.33 14.23 20.17 16.79 20.41 16.95C20.42 16.96 20.63 17.27 20.32 17.71L20.32 17.71C20.14 17.97 19.54 18.74 18.91 19.39C18.59 19.71 18.27 20.02 18 20.22C17.72 20.43 17.48 20.49 17.52 20.5C17.09 20.48 16.15 20.47 14.43 19.66C12.71 18.85 10.24 17.23 7 13.99C3.76 10.75 2.14 8.28 1.33 6.56C0.52 4.83 0.51 3.89 0.5 3.47C0.5 3.51 0.56 3.26 0.77 2.99C0.97 2.72 1.28 2.39 1.6 2.08C2.26 1.45 3.02 0.85 3.28 0.66L3.28 0.67C3.5 0.51 3.69 0.5 3.82 0.51Z" fill="url(#paint_linear_177_1727_0)" fill-opacity="1.000000" fill-rule="nonzero"/>
</svg>
